<?xml version="1.0" encoding="UTF-8" standalone="no"?>
<!DOCTYPE svg PUBLIC "-//W3C//DTD SVG 1.1//EN"
 "http://www.w3.org/Graphics/SVG/1.1/DTD/svg11.dtd">
<!-- Generated by graphviz version 12.2.1 (20241206.2353)
 -->
<!-- Title: network_preview Pages: 1 -->
<svg width="1583pt" height="241pt"
 viewBox="0.00 0.00 1582.50 241.00" xmlns="http://www.w3.org/2000/svg" xmlns:xlink="http://www.w3.org/1999/xlink">
<g id="graph0" class="graph" transform="scale(1 1) rotate(0) translate(4 237)">
<title>network_preview</title>
<polygon fill="white" stroke="none" points="-4,4 -4,-237 1578.5,-237 1578.5,4 -4,4"/>
<text text-anchor="middle" x="787.25" y="-215.7" font-family="Helvetica,sans-Serif" font-size="14.00">Hypothesis&#45;level network preview derived from candidate CSV tables</text>
<g id="clust1" class="cluster">
<title>cluster_0</title>
<path fill="white" stroke="#d0d7de" d="M223.5,-98C223.5,-98 350.75,-98 350.75,-98 356.75,-98 362.75,-104 362.75,-110 362.75,-110 362.75,-161 362.75,-161 362.75,-167 356.75,-173 350.75,-173 350.75,-173 223.5,-173 223.5,-173 217.5,-173 211.5,-167 211.5,-161 211.5,-161 211.5,-110 211.5,-110 211.5,-104 217.5,-98 223.5,-98"/>
<text text-anchor="middle" x="287.12" y="-155.7" font-family="Helvetica,sans-Serif" font-size="14.00">evolutionary_layer</text>
</g>
<g id="clust2" class="cluster">
<title>cluster_1</title>
<path fill="white" stroke="#d0d7de" d="M1377,-127C1377,-127 1554.5,-127 1554.5,-127 1560.5,-127 1566.5,-133 1566.5,-139 1566.5,-139 1566.5,-190 1566.5,-190 1566.5,-196 1560.5,-202 1554.5,-202 1554.5,-202 1377,-202 1377,-202 1371,-202 1365,-196 1365,-190 1365,-190 1365,-139 1365,-139 1365,-133 1371,-127 1377,-127"/>
<text text-anchor="middle" x="1465.75" y="-184.7" font-family="Helvetica,sans-Serif" font-size="14.00">phenotype</text>
</g>
<g id="clust3" class="cluster">
<title>cluster_2</title>
<path fill="white" stroke="#d0d7de" d="M878.25,-58C878.25,-58 1303,-58 1303,-58 1309,-58 1315,-64 1315,-70 1315,-70 1315,-121 1315,-121 1315,-127 1309,-133 1303,-133 1303,-133 878.25,-133 878.25,-133 872.25,-133 866.25,-127 866.25,-121 866.25,-121 866.25,-70 866.25,-70 866.25,-64 872.25,-58 878.25,-58"/>
<text text-anchor="middle" x="1090.62" y="-115.7" font-family="Helvetica,sans-Serif" font-size="14.00">response</text>
</g>
<g id="clust4" class="cluster">
<title>cluster_3</title>
<path fill="white" stroke="#d0d7de" d="M223.88,-8C223.88,-8 350.38,-8 350.38,-8 356.38,-8 362.38,-14 362.38,-20 362.38,-20 362.38,-71 362.38,-71 362.38,-77 356.38,-83 350.38,-83 350.38,-83 223.88,-83 223.88,-83 217.88,-83 211.88,-77 211.88,-71 211.88,-71 211.88,-20 211.88,-20 211.88,-14 217.88,-8 223.88,-8"/>
<text text-anchor="middle" x="287.12" y="-65.7" font-family="Helvetica,sans-Serif" font-size="14.00">sensing</text>
</g>
<g id="clust5" class="cluster">
<title>cluster_4</title>
<path fill="white" stroke="#d0d7de" d="M465.25,-12C465.25,-12 804.25,-12 804.25,-12 810.25,-12 816.25,-18 816.25,-24 816.25,-24 816.25,-75 816.25,-75 816.25,-81 810.25,-87 804.25,-87 804.25,-87 465.25,-87 465.25,-87 459.25,-87 453.25,-81 453.25,-75 453.25,-75 453.25,-24 453.25,-24 453.25,-18 459.25,-12 465.25,-12"/>
<text text-anchor="middle" x="634.75" y="-69.7" font-family="Helvetica,sans-Serif" font-size="14.00">signalling</text>
</g>
<g id="clust6" class="cluster">
<title>cluster_5</title>
<path fill="white" stroke="#d0d7de" d="M20,-8C20,-8 149.5,-8 149.5,-8 155.5,-8 161.5,-14 161.5,-20 161.5,-20 161.5,-71 161.5,-71 161.5,-77 155.5,-83 149.5,-83 149.5,-83 20,-83 20,-83 14,-83 8,-77 8,-71 8,-71 8,-20 8,-20 8,-14 14,-8 20,-8"/>
<text text-anchor="middle" x="84.75" y="-65.7" font-family="Helvetica,sans-Serif" font-size="14.00">stimulus</text>
</g>
<!-- Family_Genotype_Effects -->
<g id="node1" class="node">
<title>Family_Genotype_Effects</title>
<path fill="white" stroke="#455a64" d="M342.75,-142C342.75,-142 231.5,-142 231.5,-142 225.5,-142 219.5,-136 219.5,-130 219.5,-130 219.5,-118 219.5,-118 219.5,-112 225.5,-106 231.5,-106 231.5,-106 342.75,-106 342.75,-106 348.75,-106 354.75,-112 354.75,-118 354.75,-118 354.75,-130 354.75,-130 354.75,-136 348.75,-142 342.75,-142"/>
<text text-anchor="middle" x="287.12" y="-119.55" font-family="Helvetica,sans-Serif" font-size="11.00">Family / genotype effects</text>
</g>
<!-- Shoot_Gravitropic_Bending_Over_Time -->
<g id="node2" class="node">
<title>Shoot_Gravitropic_Bending_Over_Time</title>
<path fill="white" stroke="#455a64" d="M1546.5,-171C1546.5,-171 1385,-171 1385,-171 1379,-171 1373,-165 1373,-159 1373,-159 1373,-147 1373,-147 1373,-141 1379,-135 1385,-135 1385,-135 1546.5,-135 1546.5,-135 1552.5,-135 1558.5,-141 1558.5,-147 1558.5,-147 1558.5,-159 1558.5,-159 1558.5,-165 1552.5,-171 1546.5,-171"/>
<text text-anchor="middle" x="1465.75" y="-148.55" font-family="Helvetica,sans-Serif" font-size="11.00">Shoot gravitropic bending over time</text>
</g>
<!-- Family_Genotype_Effects&#45;&gt;Shoot_Gravitropic_Bending_Over_Time -->
<g id="edge11" class="edge">
<title>Family_Genotype_Effects&#45;&gt;Shoot_Gravitropic_Bending_Over_Time</title>
<path fill="none" stroke="#1f77b4" stroke-dasharray="5,2" d="M338.24,-142.48C383.29,-157.43 451.6,-176 512.88,-176 512.88,-176 512.88,-176 1276,-176 1303.85,-176 1333.85,-173.5 1361.55,-170.15"/>
<polygon fill="#1f77b4" stroke="#1f77b4" points="1361.88,-173.64 1371.36,-168.91 1361,-166.69 1361.88,-173.64"/>
<text text-anchor="middle" x="923.5" y="-177.2" font-family="Helvetica,sans-Serif" font-size="9.00" fill="#1f77b4">H012 modulation</text>
</g>
<!-- Differential_Cell_Expansion -->
<g id="node5" class="node">
<title>Differential_Cell_Expansion</title>
<path fill="white" stroke="#455a64" d="M1165,-102C1165,-102 1050.75,-102 1050.75,-102 1044.75,-102 1038.75,-96 1038.75,-90 1038.75,-90 1038.75,-78 1038.75,-78 1038.75,-72 1044.75,-66 1050.75,-66 1050.75,-66 1165,-66 1165,-66 1171,-66 1177,-72 1177,-78 1177,-78 1177,-90 1177,-90 1177,-96 1171,-102 1165,-102"/>
<text text-anchor="middle" x="1107.88" y="-79.55" font-family="Helvetica,sans-Serif" font-size="11.00">Differential cell expansion</text>
</g>
<!-- Family_Genotype_Effects&#45;&gt;Differential_Cell_Expansion -->
<g id="edge10" class="edge">
<title>Family_Genotype_Effects&#45;&gt;Differential_Cell_Expansion</title>
<path fill="none" stroke="#1f77b4" stroke-dasharray="5,2" d="M354.99,-126.72C399.68,-128.31 459.79,-130 512.88,-130 512.88,-130 512.88,-130 924.5,-130 967.41,-130 1014.32,-117.88 1049.82,-106.08"/>
<polygon fill="#1f77b4" stroke="#1f77b4" points="1050.69,-109.48 1059.02,-102.93 1048.43,-102.86 1050.69,-109.48"/>
<text text-anchor="middle" x="720.38" y="-131.2" font-family="Helvetica,sans-Serif" font-size="9.00" fill="#1f77b4">H011 modulation</text>
</g>
<!-- LAZY_LZY_Module -->
<g id="node7" class="node">
<title>LAZY_LZY_Module</title>
<path fill="white" stroke="#455a64" d="M554.5,-56C554.5,-56 473.25,-56 473.25,-56 467.25,-56 461.25,-50 461.25,-44 461.25,-44 461.25,-32 461.25,-32 461.25,-26 467.25,-20 473.25,-20 473.25,-20 554.5,-20 554.5,-20 560.5,-20 566.5,-26 566.5,-32 566.5,-32 566.5,-44 566.5,-44 566.5,-50 560.5,-56 554.5,-56"/>
<text text-anchor="middle" x="513.88" y="-33.55" font-family="Helvetica,sans-Serif" font-size="11.00">LAZY/LZY module</text>
</g>
<!-- Family_Genotype_Effects&#45;&gt;LAZY_LZY_Module -->
<g id="edge8" class="edge">
<title>Family_Genotype_Effects&#45;&gt;LAZY_LZY_Module</title>
<path fill="none" stroke="#1f77b4" stroke-dasharray="5,2" d="M336.39,-105.58C345.85,-100.52 355.18,-94.35 362.75,-87 369.53,-80.42 365.21,-73.94 372.75,-68.25 385.09,-58.93 418.46,-51.54 449.53,-46.39"/>
<polygon fill="#1f77b4" stroke="#1f77b4" points="450.01,-49.86 459.34,-44.83 448.92,-42.94 450.01,-49.86"/>
<text text-anchor="middle" x="408" y="-69.45" font-family="Helvetica,sans-Serif" font-size="9.00" fill="#1f77b4">H009 modulation</text>
</g>
<!-- PIN_Auxin_Redistribution -->
<g id="node8" class="node">
<title>PIN_Auxin_Redistribution</title>
<path fill="white" stroke="#455a64" d="M796.25,-56C796.25,-56 644.5,-56 644.5,-56 638.5,-56 632.5,-50 632.5,-44 632.5,-44 632.5,-32 632.5,-32 632.5,-26 638.5,-20 644.5,-20 644.5,-20 796.25,-20 796.25,-20 802.25,-20 808.25,-26 808.25,-32 808.25,-32 808.25,-44 808.25,-44 808.25,-50 802.25,-56 796.25,-56"/>
<text text-anchor="middle" x="720.38" y="-33.55" font-family="Helvetica,sans-Serif" font-size="11.00">PIN&#45;mediated auxin redistribution</text>
</g>
<!-- Family_Genotype_Effects&#45;&gt;PIN_Auxin_Redistribution -->
<g id="edge9" class="edge">
<title>Family_Genotype_Effects&#45;&gt;PIN_Auxin_Redistribution</title>
<path fill="none" stroke="#1f77b4" stroke-dasharray="5,2" d="M355.03,-110.66C426.21,-96.46 539.54,-73.86 620.9,-57.64"/>
<polygon fill="#1f77b4" stroke="#1f77b4" points="621.56,-61.08 630.68,-55.69 620.19,-54.21 621.56,-61.08"/>
<text text-anchor="middle" x="513.88" y="-92.15" font-family="Helvetica,sans-Serif" font-size="9.00" fill="#1f77b4">H010 modulation</text>
</g>
<!-- Auxin_Asymmetry -->
<g id="node3" class="node">
<title>Auxin_Asymmetry</title>
<path fill="white" stroke="#455a64" d="M960.75,-102C960.75,-102 886.25,-102 886.25,-102 880.25,-102 874.25,-96 874.25,-90 874.25,-90 874.25,-78 874.25,-78 874.25,-72 880.25,-66 886.25,-66 886.25,-66 960.75,-66 960.75,-66 966.75,-66 972.75,-72 972.75,-78 972.75,-78 972.75,-90 972.75,-90 972.75,-96 966.75,-102 960.75,-102"/>
<text text-anchor="middle" x="923.5" y="-79.55" font-family="Helvetica,sans-Serif" font-size="11.00">Auxin asymmetry</text>
</g>
<!-- Auxin_Asymmetry&#45;&gt;Differential_Cell_Expansion -->
<g id="edge5" class="edge">
<title>Auxin_Asymmetry&#45;&gt;Differential_Cell_Expansion</title>
<path fill="none" stroke="black" d="M972.89,-84C989.5,-84 1008.55,-84 1026.98,-84"/>
<polygon fill="black" stroke="black" points="1026.83,-87.5 1036.83,-84 1026.83,-80.5 1026.83,-87.5"/>
<text text-anchor="middle" x="1005.75" y="-85.2" font-family="Helvetica,sans-Serif" font-size="9.00">H006 +</text>
</g>
<!-- Curvature -->
<g id="node4" class="node">
<title>Curvature</title>
<path fill="white" stroke="#455a64" d="M1295,-102C1295,-102 1255,-102 1255,-102 1249,-102 1243,-96 1243,-90 1243,-90 1243,-78 1243,-78 1243,-72 1249,-66 1255,-66 1255,-66 1295,-66 1295,-66 1301,-66 1307,-72 1307,-78 1307,-78 1307,-90 1307,-90 1307,-96 1301,-102 1295,-102"/>
<text text-anchor="middle" x="1275" y="-79.55" font-family="Helvetica,sans-Serif" font-size="11.00">Curvature</text>
</g>
<!-- Curvature&#45;&gt;Shoot_Gravitropic_Bending_Over_Time -->
<g id="edge7" class="edge">
<title>Curvature&#45;&gt;Shoot_Gravitropic_Bending_Over_Time</title>
<path fill="none" stroke="black" d="M1307.17,-95.39C1333.32,-104.95 1371.46,-118.9 1403.66,-130.67"/>
<polygon fill="black" stroke="black" points="1402.32,-133.9 1412.91,-134.05 1404.72,-127.33 1402.32,-133.9"/>
<text text-anchor="middle" x="1340" y="-113.52" font-family="Helvetica,sans-Serif" font-size="9.00">H008 +</text>
</g>
<!-- Differential_Cell_Expansion&#45;&gt;Curvature -->
<g id="edge6" class="edge">
<title>Differential_Cell_Expansion&#45;&gt;Curvature</title>
<path fill="none" stroke="black" d="M1177.47,-84C1195.72,-84 1214.91,-84 1231.33,-84"/>
<polygon fill="black" stroke="black" points="1231.23,-87.5 1241.23,-84 1231.23,-80.5 1231.23,-87.5"/>
<text text-anchor="middle" x="1210" y="-85.2" font-family="Helvetica,sans-Serif" font-size="9.00">H007 +</text>
</g>
<!-- Amyloplast_Displacement -->
<g id="node6" class="node">
<title>Amyloplast_Displacement</title>
<path fill="white" stroke="#455a64" d="M342.38,-52C342.38,-52 231.88,-52 231.88,-52 225.88,-52 219.88,-46 219.88,-40 219.88,-40 219.88,-28 219.88,-28 219.88,-22 225.88,-16 231.88,-16 231.88,-16 342.38,-16 342.38,-16 348.38,-16 354.38,-22 354.38,-28 354.38,-28 354.38,-40 354.38,-40 354.38,-46 348.38,-52 342.38,-52"/>
<text text-anchor="middle" x="287.12" y="-29.55" font-family="Helvetica,sans-Serif" font-size="11.00">Amyloplast displacement</text>
</g>
<!-- Amyloplast_Displacement&#45;&gt;LAZY_LZY_Module -->
<g id="edge2" class="edge">
<title>Amyloplast_Displacement&#45;&gt;LAZY_LZY_Module</title>
<path fill="none" stroke="black" d="M354.56,-34.08C382.02,-34.23 414.17,-34.56 443.25,-35.25 445.29,-35.3 447.37,-35.35 449.47,-35.41"/>
<polygon fill="black" stroke="black" points="449.18,-38.9 459.28,-35.72 449.4,-31.91 449.18,-38.9"/>
<text text-anchor="middle" x="408" y="-36.45" font-family="Helvetica,sans-Serif" font-size="9.00">H003 +</text>
</g>
<!-- LAZY_LZY_Module&#45;&gt;PIN_Auxin_Redistribution -->
<g id="edge3" class="edge">
<title>LAZY_LZY_Module&#45;&gt;PIN_Auxin_Redistribution</title>
<path fill="none" stroke="black" d="M566.74,-38C583.28,-38 602.17,-38 620.89,-38"/>
<polygon fill="black" stroke="black" points="620.67,-41.5 630.67,-38 620.67,-34.5 620.67,-41.5"/>
<text text-anchor="middle" x="599.5" y="-39.2" font-family="Helvetica,sans-Serif" font-size="9.00">H004 +</text>
</g>
<!-- PIN_Auxin_Redistribution&#45;&gt;Auxin_Asymmetry -->
<g id="edge4" class="edge">
<title>PIN_Auxin_Redistribution&#45;&gt;Auxin_Asymmetry</title>
<path fill="none" stroke="black" d="M802.02,-56.44C822.3,-61.08 843.7,-65.98 862.75,-70.33"/>
<polygon fill="black" stroke="black" points="861.97,-73.75 872.5,-72.56 863.53,-66.92 861.97,-73.75"/>
<text text-anchor="middle" x="841.25" y="-69.01" font-family="Helvetica,sans-Serif" font-size="9.00">H005 +</text>
</g>
<!-- Gravistimulation -->
<g id="node9" class="node">
<title>Gravistimulation</title>
<path fill="white" stroke="#455a64" d="M141.5,-52C141.5,-52 28,-52 28,-52 22,-52 16,-46 16,-40 16,-40 16,-28 16,-28 16,-22 22,-16 28,-16 28,-16 141.5,-16 141.5,-16 147.5,-16 153.5,-22 153.5,-28 153.5,-28 153.5,-40 153.5,-40 153.5,-46 147.5,-52 141.5,-52"/>
<text text-anchor="middle" x="84.75" y="-29.55" font-family="Helvetica,sans-Serif" font-size="11.00">Gravistimulation / rotation</text>
</g>
<!-- Gravistimulation&#45;&gt;Amyloplast_Displacement -->
<g id="edge1" class="edge">
<title>Gravistimulation&#45;&gt;Amyloplast_Displacement</title>
<path fill="none" stroke="black" d="M153.87,-34C171.35,-34 190.3,-34 208.24,-34"/>
<polygon fill="black" stroke="black" points="208.04,-37.5 218.04,-34 208.04,-30.5 208.04,-37.5"/>
<text text-anchor="middle" x="186.5" y="-35.2" font-family="Helvetica,sans-Serif" font-size="9.00">H001 +</text>
</g>
</g>
</svg>
