<?xml version="1.0" encoding="UTF-8" standalone="no"?>
<!DOCTYPE svg PUBLIC "-//W3C//DTD SVG 1.1//EN"
 "http://www.w3.org/Graphics/SVG/1.1/DTD/svg11.dtd">
<!-- Generated by graphviz version 12.2.1 (20241206.2353)
 -->
<!-- Title: network_preview Pages: 1 -->
<svg width="1541pt" height="122pt"
 viewBox="0.00 0.00 1541.25 122.00" xmlns="http://www.w3.org/2000/svg" xmlns:xlink="http://www.w3.org/1999/xlink">
<g id="graph0" class="graph" transform="scale(1 1) rotate(0) translate(4 118)">
<title>network_preview</title>
<polygon fill="white" stroke="none" points="-4,4 -4,-118 1537.25,-118 1537.25,4 -4,4"/>
<text text-anchor="middle" x="766.62" y="-96.7" font-family="Helvetica,sans-Serif" font-size="14.00">Hypothesis&#45;level network preview derived from candidate CSV tables</text>
<g id="clust1" class="cluster">
<title>cluster_0</title>
<path fill="white" stroke="#d0d7de" d="M1335.75,-8C1335.75,-8 1513.25,-8 1513.25,-8 1519.25,-8 1525.25,-14 1525.25,-20 1525.25,-20 1525.25,-71 1525.25,-71 1525.25,-77 1519.25,-83 1513.25,-83 1513.25,-83 1335.75,-83 1335.75,-83 1329.75,-83 1323.75,-77 1323.75,-71 1323.75,-71 1323.75,-20 1323.75,-20 1323.75,-14 1329.75,-8 1335.75,-8"/>
<text text-anchor="middle" x="1424.5" y="-65.7" font-family="Helvetica,sans-Serif" font-size="14.00">phenotype</text>
</g>
<g id="clust2" class="cluster">
<title>cluster_1</title>
<path fill="white" stroke="#d0d7de" d="M837,-8C837,-8 1261.75,-8 1261.75,-8 1267.75,-8 1273.75,-14 1273.75,-20 1273.75,-20 1273.75,-71 1273.75,-71 1273.75,-77 1267.75,-83 1261.75,-83 1261.75,-83 837,-83 837,-83 831,-83 825,-77 825,-71 825,-71 825,-20 825,-20 825,-14 831,-8 837,-8"/>
<text text-anchor="middle" x="1049.38" y="-65.7" font-family="Helvetica,sans-Serif" font-size="14.00">response</text>
</g>
<g id="clust3" class="cluster">
<title>cluster_2</title>
<path fill="white" stroke="#d0d7de" d="M223.5,-8C223.5,-8 350,-8 350,-8 356,-8 362,-14 362,-20 362,-20 362,-71 362,-71 362,-77 356,-83 350,-83 350,-83 223.5,-83 223.5,-83 217.5,-83 211.5,-77 211.5,-71 211.5,-71 211.5,-20 211.5,-20 211.5,-14 217.5,-8 223.5,-8"/>
<text text-anchor="middle" x="286.75" y="-65.7" font-family="Helvetica,sans-Serif" font-size="14.00">sensing</text>
</g>
<g id="clust4" class="cluster">
<title>cluster_3</title>
<path fill="white" stroke="#d0d7de" d="M424,-8C424,-8 763,-8 763,-8 769,-8 775,-14 775,-20 775,-20 775,-71 775,-71 775,-77 769,-83 763,-83 763,-83 424,-83 424,-83 418,-83 412,-77 412,-71 412,-71 412,-20 412,-20 412,-14 418,-8 424,-8"/>
<text text-anchor="middle" x="593.5" y="-65.7" font-family="Helvetica,sans-Serif" font-size="14.00">signalling</text>
</g>
<g id="clust5" class="cluster">
<title>cluster_4</title>
<path fill="white" stroke="#d0d7de" d="M20,-8C20,-8 149.5,-8 149.5,-8 155.5,-8 161.5,-14 161.5,-20 161.5,-20 161.5,-71 161.5,-71 161.5,-77 155.5,-83 149.5,-83 149.5,-83 20,-83 20,-83 14,-83 8,-77 8,-71 8,-71 8,-20 8,-20 8,-14 14,-8 20,-8"/>
<text text-anchor="middle" x="84.75" y="-65.7" font-family="Helvetica,sans-Serif" font-size="14.00">stimulus</text>
</g>
<!-- Shoot_Gravitropic_Bending_Over_Time -->
<g id="node1" class="node">
<title>Shoot_Gravitropic_Bending_Over_Time</title>
<path fill="white" stroke="#455a64" d="M1505.25,-52C1505.25,-52 1343.75,-52 1343.75,-52 1337.75,-52 1331.75,-46 1331.75,-40 1331.75,-40 1331.75,-28 1331.75,-28 1331.75,-22 1337.75,-16 1343.75,-16 1343.75,-16 1505.25,-16 1505.25,-16 1511.25,-16 1517.25,-22 1517.25,-28 1517.25,-28 1517.25,-40 1517.25,-40 1517.25,-46 1511.25,-52 1505.25,-52"/>
<text text-anchor="middle" x="1424.5" y="-29.55" font-family="Helvetica,sans-Serif" font-size="11.00">Shoot gravitropic bending over time</text>
</g>
<!-- Auxin_Asymmetry -->
<g id="node2" class="node">
<title>Auxin_Asymmetry</title>
<path fill="white" stroke="#455a64" d="M919.5,-52C919.5,-52 845,-52 845,-52 839,-52 833,-46 833,-40 833,-40 833,-28 833,-28 833,-22 839,-16 845,-16 845,-16 919.5,-16 919.5,-16 925.5,-16 931.5,-22 931.5,-28 931.5,-28 931.5,-40 931.5,-40 931.5,-46 925.5,-52 919.5,-52"/>
<text text-anchor="middle" x="882.25" y="-29.55" font-family="Helvetica,sans-Serif" font-size="11.00">Auxin asymmetry</text>
</g>
<!-- Differential_Cell_Expansion -->
<g id="node4" class="node">
<title>Differential_Cell_Expansion</title>
<path fill="white" stroke="#455a64" d="M1123.75,-52C1123.75,-52 1009.5,-52 1009.5,-52 1003.5,-52 997.5,-46 997.5,-40 997.5,-40 997.5,-28 997.5,-28 997.5,-22 1003.5,-16 1009.5,-16 1009.5,-16 1123.75,-16 1123.75,-16 1129.75,-16 1135.75,-22 1135.75,-28 1135.75,-28 1135.75,-40 1135.75,-40 1135.75,-46 1129.75,-52 1123.75,-52"/>
<text text-anchor="middle" x="1066.62" y="-29.55" font-family="Helvetica,sans-Serif" font-size="11.00">Differential cell expansion</text>
</g>
<!-- Auxin_Asymmetry&#45;&gt;Differential_Cell_Expansion -->
<g id="edge5" class="edge">
<title>Auxin_Asymmetry&#45;&gt;Differential_Cell_Expansion</title>
<path fill="none" stroke="black" d="M931.64,-34C948.25,-34 967.3,-34 985.73,-34"/>
<polygon fill="black" stroke="black" points="985.58,-37.5 995.58,-34 985.58,-30.5 985.58,-37.5"/>
<text text-anchor="middle" x="964.5" y="-35.2" font-family="Helvetica,sans-Serif" font-size="9.00">H006 +</text>
</g>
<!-- Curvature -->
<g id="node3" class="node">
<title>Curvature</title>
<path fill="white" stroke="#455a64" d="M1253.75,-52C1253.75,-52 1213.75,-52 1213.75,-52 1207.75,-52 1201.75,-46 1201.75,-40 1201.75,-40 1201.75,-28 1201.75,-28 1201.75,-22 1207.75,-16 1213.75,-16 1213.75,-16 1253.75,-16 1253.75,-16 1259.75,-16 1265.75,-22 1265.75,-28 1265.75,-28 1265.75,-40 1265.75,-40 1265.75,-46 1259.75,-52 1253.75,-52"/>
<text text-anchor="middle" x="1233.75" y="-29.55" font-family="Helvetica,sans-Serif" font-size="11.00">Curvature</text>
</g>
<!-- Curvature&#45;&gt;Shoot_Gravitropic_Bending_Over_Time -->
<g id="edge7" class="edge">
<title>Curvature&#45;&gt;Shoot_Gravitropic_Bending_Over_Time</title>
<path fill="none" stroke="black" d="M1265.92,-34C1281.13,-34 1300.4,-34 1320.2,-34"/>
<polygon fill="black" stroke="black" points="1320.04,-37.5 1330.04,-34 1320.04,-30.5 1320.04,-37.5"/>
<text text-anchor="middle" x="1298.75" y="-35.2" font-family="Helvetica,sans-Serif" font-size="9.00">H008 +</text>
</g>
<!-- Differential_Cell_Expansion&#45;&gt;Curvature -->
<g id="edge6" class="edge">
<title>Differential_Cell_Expansion&#45;&gt;Curvature</title>
<path fill="none" stroke="black" d="M1136.22,-34C1154.47,-34 1173.66,-34 1190.08,-34"/>
<polygon fill="black" stroke="black" points="1189.98,-37.5 1199.98,-34 1189.98,-30.5 1189.98,-37.5"/>
<text text-anchor="middle" x="1168.75" y="-35.2" font-family="Helvetica,sans-Serif" font-size="9.00">H007 +</text>
</g>
<!-- Amyloplast_Displacement -->
<g id="node5" class="node">
<title>Amyloplast_Displacement</title>
<path fill="white" stroke="#455a64" d="M342,-52C342,-52 231.5,-52 231.5,-52 225.5,-52 219.5,-46 219.5,-40 219.5,-40 219.5,-28 219.5,-28 219.5,-22 225.5,-16 231.5,-16 231.5,-16 342,-16 342,-16 348,-16 354,-22 354,-28 354,-28 354,-40 354,-40 354,-46 348,-52 342,-52"/>
<text text-anchor="middle" x="286.75" y="-29.55" font-family="Helvetica,sans-Serif" font-size="11.00">Amyloplast displacement</text>
</g>
<!-- LAZY_LZY_Module -->
<g id="node6" class="node">
<title>LAZY_LZY_Module</title>
<path fill="white" stroke="#455a64" d="M513.25,-52C513.25,-52 432,-52 432,-52 426,-52 420,-46 420,-40 420,-40 420,-28 420,-28 420,-22 426,-16 432,-16 432,-16 513.25,-16 513.25,-16 519.25,-16 525.25,-22 525.25,-28 525.25,-28 525.25,-40 525.25,-40 525.25,-46 519.25,-52 513.25,-52"/>
<text text-anchor="middle" x="472.62" y="-29.55" font-family="Helvetica,sans-Serif" font-size="11.00">LAZY/LZY module</text>
</g>
<!-- Amyloplast_Displacement&#45;&gt;LAZY_LZY_Module -->
<g id="edge2" class="edge">
<title>Amyloplast_Displacement&#45;&gt;LAZY_LZY_Module</title>
<path fill="none" stroke="black" d="M354.39,-34C372.01,-34 390.98,-34 408.41,-34"/>
<polygon fill="black" stroke="black" points="408.1,-37.5 418.1,-34 408.1,-30.5 408.1,-37.5"/>
<text text-anchor="middle" x="387" y="-35.2" font-family="Helvetica,sans-Serif" font-size="9.00">H003 +</text>
</g>
<!-- PIN_Auxin_Redistribution -->
<g id="node7" class="node">
<title>PIN_Auxin_Redistribution</title>
<path fill="white" stroke="#455a64" d="M755,-52C755,-52 603.25,-52 603.25,-52 597.25,-52 591.25,-46 591.25,-40 591.25,-40 591.25,-28 591.25,-28 591.25,-22 597.25,-16 603.25,-16 603.25,-16 755,-16 755,-16 761,-16 767,-22 767,-28 767,-28 767,-40 767,-40 767,-46 761,-52 755,-52"/>
<text text-anchor="middle" x="679.12" y="-29.55" font-family="Helvetica,sans-Serif" font-size="11.00">PIN&#45;mediated auxin redistribution</text>
</g>
<!-- LAZY_LZY_Module&#45;&gt;PIN_Auxin_Redistribution -->
<g id="edge3" class="edge">
<title>LAZY_LZY_Module&#45;&gt;PIN_Auxin_Redistribution</title>
<path fill="none" stroke="black" d="M525.49,-34C542.03,-34 560.92,-34 579.64,-34"/>
<polygon fill="black" stroke="black" points="579.42,-37.5 589.42,-34 579.42,-30.5 579.42,-37.5"/>
<text text-anchor="middle" x="558.25" y="-35.2" font-family="Helvetica,sans-Serif" font-size="9.00">H004 +</text>
</g>
<!-- PIN_Auxin_Redistribution&#45;&gt;Auxin_Asymmetry -->
<g id="edge4" class="edge">
<title>PIN_Auxin_Redistribution&#45;&gt;Auxin_Asymmetry</title>
<path fill="none" stroke="black" d="M767.46,-34C785.64,-34 804.4,-34 821.32,-34"/>
<polygon fill="black" stroke="black" points="821.19,-37.5 831.19,-34 821.19,-30.5 821.19,-37.5"/>
<text text-anchor="middle" x="800" y="-35.2" font-family="Helvetica,sans-Serif" font-size="9.00">H005 +</text>
</g>
<!-- Gravistimulation -->
<g id="node8" class="node">
<title>Gravistimulation</title>
<path fill="white" stroke="#455a64" d="M141.5,-52C141.5,-52 28,-52 28,-52 22,-52 16,-46 16,-40 16,-40 16,-28 16,-28 16,-22 22,-16 28,-16 28,-16 141.5,-16 141.5,-16 147.5,-16 153.5,-22 153.5,-28 153.5,-28 153.5,-40 153.5,-40 153.5,-46 147.5,-52 141.5,-52"/>
<text text-anchor="middle" x="84.75" y="-29.55" font-family="Helvetica,sans-Serif" font-size="11.00">Gravistimulation / rotation</text>
</g>
<!-- Gravistimulation&#45;&gt;Amyloplast_Displacement -->
<g id="edge1" class="edge">
<title>Gravistimulation&#45;&gt;Amyloplast_Displacement</title>
<path fill="none" stroke="black" d="M153.74,-34C171.19,-34 190.1,-34 208.01,-34"/>
<polygon fill="black" stroke="black" points="207.79,-37.5 217.79,-34 207.79,-30.5 207.79,-37.5"/>
<text text-anchor="middle" x="186.5" y="-35.2" font-family="Helvetica,sans-Serif" font-size="9.00">H001 +</text>
</g>
</g>
</svg>
