<?xml version="1.0" encoding="UTF-8" standalone="no"?>
<!DOCTYPE svg PUBLIC "-//W3C//DTD SVG 1.1//EN"
 "http://www.w3.org/Graphics/SVG/1.1/DTD/svg11.dtd">
<!-- Generated by graphviz version 12.2.1 (20241206.2353)
 -->
<!-- Title: network_preview Pages: 1 -->
<svg width="1133pt" height="425pt"
 viewBox="0.00 0.00 1132.50 425.00" xmlns="http://www.w3.org/2000/svg" xmlns:xlink="http://www.w3.org/1999/xlink">
<g id="graph0" class="graph" transform="scale(1 1) rotate(0) translate(4 421)">
<title>network_preview</title>
<polygon fill="white" stroke="none" points="-4,4 -4,-421 1128.5,-421 1128.5,4 -4,4"/>
<text text-anchor="middle" x="562.25" y="-399.7" font-family="Helvetica,sans-Serif" font-size="14.00">Hypothesis&#45;level network preview derived from candidate CSV tables</text>
<g id="clust1" class="cluster">
<title>cluster_0</title>
<path fill="white" stroke="#d0d7de" d="M505,-174C505,-174 675.75,-174 675.75,-174 681.75,-174 687.75,-180 687.75,-186 687.75,-186 687.75,-291 687.75,-291 687.75,-297 681.75,-303 675.75,-303 675.75,-303 505,-303 505,-303 499,-303 493,-297 493,-291 493,-291 493,-186 493,-186 493,-180 499,-174 505,-174"/>
<text text-anchor="middle" x="590.38" y="-285.7" font-family="Helvetica,sans-Serif" font-size="14.00">evolutionary_layer</text>
</g>
<g id="clust2" class="cluster">
<title>cluster_1</title>
<path fill="white" stroke="#d0d7de" d="M797,-212C797,-212 974.5,-212 974.5,-212 980.5,-212 986.5,-218 986.5,-224 986.5,-224 986.5,-275 986.5,-275 986.5,-281 980.5,-287 974.5,-287 974.5,-287 797,-287 797,-287 791,-287 785,-281 785,-275 785,-275 785,-224 785,-224 785,-218 791,-212 797,-212"/>
<text text-anchor="middle" x="885.75" y="-269.7" font-family="Helvetica,sans-Serif" font-size="14.00">phenotype</text>
</g>
<g id="clust3" class="cluster">
<title>cluster_2</title>
<path fill="white" stroke="#d0d7de" d="M545.12,-311C545.12,-311 1104.5,-311 1104.5,-311 1110.5,-311 1116.5,-317 1116.5,-323 1116.5,-323 1116.5,-374 1116.5,-374 1116.5,-380 1110.5,-386 1104.5,-386 1104.5,-386 545.12,-386 545.12,-386 539.12,-386 533.12,-380 533.12,-374 533.12,-374 533.12,-323 533.12,-323 533.12,-317 539.12,-311 545.12,-311"/>
<text text-anchor="middle" x="824.81" y="-368.7" font-family="Helvetica,sans-Serif" font-size="14.00">response</text>
</g>
<g id="clust4" class="cluster">
<title>cluster_3</title>
<path fill="white" stroke="#d0d7de" d="M20,-91C20,-91 431,-91 431,-91 437,-91 443,-97 443,-103 443,-103 443,-154 443,-154 443,-160 437,-166 431,-166 431,-166 20,-166 20,-166 14,-166 8,-160 8,-154 8,-154 8,-103 8,-103 8,-97 14,-91 20,-91"/>
<text text-anchor="middle" x="225.5" y="-148.7" font-family="Helvetica,sans-Serif" font-size="14.00">sensing</text>
</g>
<g id="clust5" class="cluster">
<title>cluster_4</title>
<path fill="white" stroke="#d0d7de" d="M541.75,-91C541.75,-91 969.62,-91 969.62,-91 975.62,-91 981.62,-97 981.62,-103 981.62,-103 981.62,-154 981.62,-154 981.62,-160 975.62,-166 969.62,-166 969.62,-166 541.75,-166 541.75,-166 535.75,-166 529.75,-160 529.75,-154 529.75,-154 529.75,-103 529.75,-103 529.75,-97 535.75,-91 541.75,-91"/>
<text text-anchor="middle" x="755.69" y="-148.7" font-family="Helvetica,sans-Serif" font-size="14.00">signalling</text>
</g>
<g id="clust6" class="cluster">
<title>cluster_5</title>
<path fill="white" stroke="#d0d7de" d="M48.5,-8C48.5,-8 178,-8 178,-8 184,-8 190,-14 190,-20 190,-20 190,-71 190,-71 190,-77 184,-83 178,-83 178,-83 48.5,-83 48.5,-83 42.5,-83 36.5,-77 36.5,-71 36.5,-71 36.5,-20 36.5,-20 36.5,-14 42.5,-8 48.5,-8"/>
<text text-anchor="middle" x="113.25" y="-65.7" font-family="Helvetica,sans-Serif" font-size="14.00">stimulus</text>
</g>
<!-- Family_Genotype_Effects -->
<g id="node1" class="node">
<title>Family_Genotype_Effects</title>
<path fill="white" stroke="#455a64" d="M646,-218C646,-218 534.75,-218 534.75,-218 528.75,-218 522.75,-212 522.75,-206 522.75,-206 522.75,-194 522.75,-194 522.75,-188 528.75,-182 534.75,-182 534.75,-182 646,-182 646,-182 652,-182 658,-188 658,-194 658,-194 658,-206 658,-206 658,-212 652,-218 646,-218"/>
<text text-anchor="middle" x="590.38" y="-195.55" font-family="Helvetica,sans-Serif" font-size="11.00">Family / genotype effects</text>
</g>
<!-- Shoot_Gravitropic_Bending_Over_Time -->
<g id="node3" class="node">
<title>Shoot_Gravitropic_Bending_Over_Time</title>
<path fill="white" stroke="#455a64" d="M966.5,-256C966.5,-256 805,-256 805,-256 799,-256 793,-250 793,-244 793,-244 793,-232 793,-232 793,-226 799,-220 805,-220 805,-220 966.5,-220 966.5,-220 972.5,-220 978.5,-226 978.5,-232 978.5,-232 978.5,-244 978.5,-244 978.5,-250 972.5,-256 966.5,-256"/>
<text text-anchor="middle" x="885.75" y="-233.55" font-family="Helvetica,sans-Serif" font-size="11.00">Shoot gravitropic bending over time</text>
</g>
<!-- Family_Genotype_Effects&#45;&gt;Shoot_Gravitropic_Bending_Over_Time -->
<g id="edge12" class="edge">
<title>Family_Genotype_Effects&#45;&gt;Shoot_Gravitropic_Bending_Over_Time</title>
<path fill="none" stroke="#1f77b4" stroke-dasharray="5,2" d="M658.14,-207.73C692.99,-211.86 736.32,-217.13 775,-222.25 777.06,-222.52 779.14,-222.8 781.23,-223.08"/>
<polygon fill="#1f77b4" stroke="#1f77b4" points="780.67,-226.54 791.05,-224.42 781.62,-219.6 780.67,-226.54"/>
<text text-anchor="middle" x="736.38" y="-223.45" font-family="Helvetica,sans-Serif" font-size="9.00" fill="#1f77b4">H012 modulation</text>
</g>
<!-- Differential_Cell_Expansion -->
<g id="node6" class="node">
<title>Differential_Cell_Expansion</title>
<path fill="white" stroke="#455a64" d="M942.88,-355C942.88,-355 828.62,-355 828.62,-355 822.62,-355 816.62,-349 816.62,-343 816.62,-343 816.62,-331 816.62,-331 816.62,-325 822.62,-319 828.62,-319 828.62,-319 942.88,-319 942.88,-319 948.88,-319 954.88,-325 954.88,-331 954.88,-331 954.88,-343 954.88,-343 954.88,-349 948.88,-355 942.88,-355"/>
<text text-anchor="middle" x="885.75" y="-332.55" font-family="Helvetica,sans-Serif" font-size="11.00">Differential cell expansion</text>
</g>
<!-- Family_Genotype_Effects&#45;&gt;Differential_Cell_Expansion -->
<g id="edge11" class="edge">
<title>Family_Genotype_Effects&#45;&gt;Differential_Cell_Expansion</title>
<path fill="none" stroke="#1f77b4" stroke-dasharray="5,2" d="M658.44,-210.57C669.06,-214.46 679.31,-219.76 687.75,-227 695.9,-233.99 689.66,-241.93 697.75,-249 724.75,-272.6 747.27,-249.52 775,-272.25 782.3,-278.24 778.13,-284.52 785,-291 794.59,-300.05 806.27,-307.57 818.23,-313.72"/>
<polygon fill="#1f77b4" stroke="#1f77b4" points="816.39,-316.72 826.92,-317.91 819.43,-310.42 816.39,-316.72"/>
<text text-anchor="middle" x="736.38" y="-273.45" font-family="Helvetica,sans-Serif" font-size="9.00" fill="#1f77b4">H011 modulation</text>
</g>
<!-- LAZY_LZY_Module -->
<g id="node9" class="node">
<title>LAZY_LZY_Module</title>
<path fill="white" stroke="#455a64" d="M631,-135C631,-135 549.75,-135 549.75,-135 543.75,-135 537.75,-129 537.75,-123 537.75,-123 537.75,-111 537.75,-111 537.75,-105 543.75,-99 549.75,-99 549.75,-99 631,-99 631,-99 637,-99 643,-105 643,-111 643,-111 643,-123 643,-123 643,-129 637,-135 631,-135"/>
<text text-anchor="middle" x="590.38" y="-112.55" font-family="Helvetica,sans-Serif" font-size="11.00">LAZY/LZY module</text>
</g>
<!-- Family_Genotype_Effects&#45;&gt;LAZY_LZY_Module -->
<g id="edge9" class="edge">
<title>Family_Genotype_Effects&#45;&gt;LAZY_LZY_Module</title>
<path fill="none" stroke="#1f77b4" stroke-dasharray="5,2" d="M590.38,-181.63C590.38,-171.43 590.38,-158.49 590.38,-146.88"/>
<polygon fill="#1f77b4" stroke="#1f77b4" points="593.88,-146.93 590.38,-136.93 586.88,-146.93 593.88,-146.93"/>
<text text-anchor="middle" x="582.5" y="-154.82" font-family="Helvetica,sans-Serif" font-size="9.00" fill="#1f77b4">H009 modulation</text>
</g>
<!-- PIN_Auxin_Redistribution -->
<g id="node10" class="node">
<title>PIN_Auxin_Redistribution</title>
<path fill="white" stroke="#455a64" d="M961.62,-135C961.62,-135 809.88,-135 809.88,-135 803.88,-135 797.88,-129 797.88,-123 797.88,-123 797.88,-111 797.88,-111 797.88,-105 803.88,-99 809.88,-99 809.88,-99 961.62,-99 961.62,-99 967.62,-99 973.62,-105 973.62,-111 973.62,-111 973.62,-123 973.62,-123 973.62,-129 967.62,-135 961.62,-135"/>
<text text-anchor="middle" x="885.75" y="-112.55" font-family="Helvetica,sans-Serif" font-size="11.00">PIN&#45;mediated auxin redistribution</text>
</g>
<!-- Family_Genotype_Effects&#45;&gt;PIN_Auxin_Redistribution -->
<g id="edge10" class="edge">
<title>Family_Genotype_Effects&#45;&gt;PIN_Auxin_Redistribution</title>
<path fill="none" stroke="#1f77b4" stroke-dasharray="5,2" d="M656.48,-181.58C701.51,-168.84 761.57,-151.85 808.78,-138.49"/>
<polygon fill="#1f77b4" stroke="#1f77b4" points="809.44,-141.94 818.11,-135.85 807.54,-135.21 809.44,-141.94"/>
<text text-anchor="middle" x="736.38" y="-169.58" font-family="Helvetica,sans-Serif" font-size="9.00" fill="#1f77b4">H010 modulation</text>
</g>
<!-- Gravitropic_vs_Agravitropic_Families -->
<g id="node2" class="node">
<title>Gravitropic_vs_Agravitropic_Families</title>
<path fill="white" stroke="#455a64" d="M667.75,-272C667.75,-272 513,-272 513,-272 507,-272 501,-266 501,-260 501,-260 501,-248 501,-248 501,-242 507,-236 513,-236 513,-236 667.75,-236 667.75,-236 673.75,-236 679.75,-242 679.75,-248 679.75,-248 679.75,-260 679.75,-260 679.75,-266 673.75,-272 667.75,-272"/>
<text text-anchor="middle" x="590.38" y="-249.55" font-family="Helvetica,sans-Serif" font-size="11.00">Gravitropic vs agravitropic families</text>
</g>
<!-- Shoot_Gravitropic_Bending_Over_Time&#45;&gt;Gravitropic_vs_Agravitropic_Families -->
<g id="edge13" class="edge">
<title>Shoot_Gravitropic_Bending_Over_Time&#45;&gt;Gravitropic_vs_Agravitropic_Families</title>
<path fill="none" stroke="#737373" stroke-dasharray="5,2" d="M792.87,-236.22C762.55,-236.27 728.67,-237.01 697.75,-239.25 695.68,-239.4 693.59,-239.56 691.48,-239.74"/>
<polygon fill="#737373" stroke="#737373" points="691.22,-236.25 681.6,-240.67 691.88,-243.22 691.22,-236.25"/>
<text text-anchor="middle" x="736.38" y="-240.45" font-family="Helvetica,sans-Serif" font-size="9.00" fill="#595959">H013 classification</text>
</g>
<!-- Auxin_Asymmetry -->
<g id="node4" class="node">
<title>Auxin_Asymmetry</title>
<path fill="white" stroke="#455a64" d="M627.62,-355C627.62,-355 553.12,-355 553.12,-355 547.12,-355 541.12,-349 541.12,-343 541.12,-343 541.12,-331 541.12,-331 541.12,-325 547.12,-319 553.12,-319 553.12,-319 627.62,-319 627.62,-319 633.62,-319 639.62,-325 639.62,-331 639.62,-331 639.62,-343 639.62,-343 639.62,-349 633.62,-355 627.62,-355"/>
<text text-anchor="middle" x="590.38" y="-332.55" font-family="Helvetica,sans-Serif" font-size="11.00">Auxin asymmetry</text>
</g>
<!-- Auxin_Asymmetry&#45;&gt;Differential_Cell_Expansion -->
<g id="edge6" class="edge">
<title>Auxin_Asymmetry&#45;&gt;Differential_Cell_Expansion</title>
<path fill="none" stroke="black" d="M639.82,-337C684.62,-337 752.06,-337 804.84,-337"/>
<polygon fill="black" stroke="black" points="804.69,-340.5 814.69,-337 804.69,-333.5 804.69,-340.5"/>
<text text-anchor="middle" x="736.38" y="-338.2" font-family="Helvetica,sans-Serif" font-size="9.00">H006 +</text>
</g>
<!-- Curvature -->
<g id="node5" class="node">
<title>Curvature</title>
<path fill="white" stroke="#455a64" d="M1096.5,-355C1096.5,-355 1056.5,-355 1056.5,-355 1050.5,-355 1044.5,-349 1044.5,-343 1044.5,-343 1044.5,-331 1044.5,-331 1044.5,-325 1050.5,-319 1056.5,-319 1056.5,-319 1096.5,-319 1096.5,-319 1102.5,-319 1108.5,-325 1108.5,-331 1108.5,-331 1108.5,-343 1108.5,-343 1108.5,-349 1102.5,-355 1096.5,-355"/>
<text text-anchor="middle" x="1076.5" y="-332.55" font-family="Helvetica,sans-Serif" font-size="11.00">Curvature</text>
</g>
<!-- Curvature&#45;&gt;Shoot_Gravitropic_Bending_Over_Time -->
<g id="edge8" class="edge">
<title>Curvature&#45;&gt;Shoot_Gravitropic_Bending_Over_Time</title>
<path fill="none" stroke="black" d="M1044.08,-320.52C1013.37,-304.41 966.33,-279.74 931.68,-261.57"/>
<polygon fill="black" stroke="black" points="933.63,-258.64 923.15,-257.09 930.38,-264.84 933.63,-258.64"/>
<text text-anchor="middle" x="1011.5" y="-311.65" font-family="Helvetica,sans-Serif" font-size="9.00">H008 +</text>
</g>
<!-- Differential_Cell_Expansion&#45;&gt;Curvature -->
<g id="edge7" class="edge">
<title>Differential_Cell_Expansion&#45;&gt;Curvature</title>
<path fill="none" stroke="black" d="M955.16,-337C981.03,-337 1009.73,-337 1032.61,-337"/>
<polygon fill="black" stroke="black" points="1032.49,-340.5 1042.49,-337 1032.49,-333.5 1032.49,-340.5"/>
<text text-anchor="middle" x="1011.5" y="-338.2" font-family="Helvetica,sans-Serif" font-size="9.00">H007 +</text>
</g>
<!-- Amyloplast_Displacement -->
<g id="node7" class="node">
<title>Amyloplast_Displacement</title>
<path fill="white" stroke="#455a64" d="M423,-135C423,-135 312.5,-135 312.5,-135 306.5,-135 300.5,-129 300.5,-123 300.5,-123 300.5,-111 300.5,-111 300.5,-105 306.5,-99 312.5,-99 312.5,-99 423,-99 423,-99 429,-99 435,-105 435,-111 435,-111 435,-123 435,-123 435,-129 429,-135 423,-135"/>
<text text-anchor="middle" x="367.75" y="-112.55" font-family="Helvetica,sans-Serif" font-size="11.00">Amyloplast displacement</text>
</g>
<!-- Amyloplast_Displacement&#45;&gt;LAZY_LZY_Module -->
<g id="edge3" class="edge">
<title>Amyloplast_Displacement&#45;&gt;LAZY_LZY_Module</title>
<path fill="none" stroke="black" d="M435.24,-117C464.01,-117 497.53,-117 525.95,-117"/>
<polygon fill="black" stroke="black" points="525.87,-120.5 535.87,-117 525.87,-113.5 525.87,-120.5"/>
<text text-anchor="middle" x="468" y="-118.2" font-family="Helvetica,sans-Serif" font-size="9.00">H003 +</text>
</g>
<!-- Endodermal_Statocyte_Gravity_Sensing -->
<g id="node8" class="node">
<title>Endodermal_Statocyte_Gravity_Sensing</title>
<path fill="white" stroke="#455a64" d="M198.5,-135C198.5,-135 28,-135 28,-135 22,-135 16,-129 16,-123 16,-123 16,-111 16,-111 16,-105 22,-99 28,-99 28,-99 198.5,-99 198.5,-99 204.5,-99 210.5,-105 210.5,-111 210.5,-111 210.5,-123 210.5,-123 210.5,-129 204.5,-135 198.5,-135"/>
<text text-anchor="middle" x="113.25" y="-112.55" font-family="Helvetica,sans-Serif" font-size="11.00">Endodermal statocyte gravity sensing</text>
</g>
<!-- Endodermal_Statocyte_Gravity_Sensing&#45;&gt;Amyloplast_Displacement -->
<g id="edge2" class="edge">
<title>Endodermal_Statocyte_Gravity_Sensing&#45;&gt;Amyloplast_Displacement</title>
<path fill="none" stroke="#7f7f7f" stroke-dasharray="1,5" d="M210.79,-117C236.51,-117 263.97,-117 288.58,-117"/>
<polygon fill="#7f7f7f" stroke="#7f7f7f" points="288.52,-120.5 298.52,-117 288.52,-113.5 288.52,-120.5"/>
<text text-anchor="middle" x="255.5" y="-118.2" font-family="Helvetica,sans-Serif" font-size="9.00" fill="#666666">H002 context</text>
</g>
<!-- LAZY_LZY_Module&#45;&gt;PIN_Auxin_Redistribution -->
<g id="edge4" class="edge">
<title>LAZY_LZY_Module&#45;&gt;PIN_Auxin_Redistribution</title>
<path fill="none" stroke="black" d="M643.49,-117C682.97,-117 738.38,-117 786.15,-117"/>
<polygon fill="black" stroke="black" points="785.96,-120.5 795.96,-117 785.96,-113.5 785.96,-120.5"/>
<text text-anchor="middle" x="736.38" y="-118.2" font-family="Helvetica,sans-Serif" font-size="9.00">H004 +</text>
</g>
<!-- PIN_Auxin_Redistribution&#45;&gt;Auxin_Asymmetry -->
<g id="edge5" class="edge">
<title>PIN_Auxin_Redistribution&#45;&gt;Auxin_Asymmetry</title>
<path fill="none" stroke="black" d="M855.54,-135.19C832.35,-151.31 801.21,-177.06 785,-208 769.59,-237.39 796.56,-256.77 775,-282 758.74,-301.03 698.18,-316.69 651,-326.37"/>
<polygon fill="black" stroke="black" points="650.54,-322.89 641.42,-328.28 651.91,-329.75 650.54,-322.89"/>
<text text-anchor="middle" x="736.38" y="-316.55" font-family="Helvetica,sans-Serif" font-size="9.00">H005 +</text>
</g>
<!-- Gravistimulation -->
<g id="node11" class="node">
<title>Gravistimulation</title>
<path fill="white" stroke="#455a64" d="M170,-52C170,-52 56.5,-52 56.5,-52 50.5,-52 44.5,-46 44.5,-40 44.5,-40 44.5,-28 44.5,-28 44.5,-22 50.5,-16 56.5,-16 56.5,-16 170,-16 170,-16 176,-16 182,-22 182,-28 182,-28 182,-40 182,-40 182,-46 176,-52 170,-52"/>
<text text-anchor="middle" x="113.25" y="-29.55" font-family="Helvetica,sans-Serif" font-size="11.00">Gravistimulation / rotation</text>
</g>
<!-- Gravistimulation&#45;&gt;Amyloplast_Displacement -->
<g id="edge1" class="edge">
<title>Gravistimulation&#45;&gt;Amyloplast_Displacement</title>
<path fill="none" stroke="black" d="M170.29,-52.42C208.62,-65.02 259.61,-81.78 300.03,-95.07"/>
<polygon fill="black" stroke="black" points="298.84,-98.36 309.43,-98.16 301.02,-91.71 298.84,-98.36"/>
<text text-anchor="middle" x="255.5" y="-88.98" font-family="Helvetica,sans-Serif" font-size="9.00">H001 +</text>
</g>
</g>
</svg>
